<mxfile host="Electron" modified="2023-12-03T02:28:12.484Z" agent="Mozilla/5.0 (Windows NT 10.0; Win64; x64) AppleWebKit/537.36 (KHTML, like Gecko) draw.io/22.1.2 Chrome/114.0.5735.289 Electron/25.9.4 Safari/537.36" etag="z7wbxBD-Huk08tjH0l00" version="22.1.2" type="device">
  <diagram name="Page-1" id="vdtrf7RW4AtSxyo4fnbC">
    <mxGraphModel dx="1098" dy="828" grid="1" gridSize="10" guides="1" tooltips="1" connect="1" arrows="1" fold="1" page="1" pageScale="1" pageWidth="850" pageHeight="1100" math="0" shadow="0">
      <root>
        <mxCell id="0" />
        <mxCell id="1" parent="0" />
        <mxCell id="RCJvMqMgaeHjAZwMG_OY-54" value="&lt;u&gt;performer_id&lt;/u&gt;" style="rounded=0;whiteSpace=wrap;html=1;" vertex="1" parent="1">
          <mxGeometry x="40" y="360" width="120" height="40" as="geometry" />
        </mxCell>
        <mxCell id="RCJvMqMgaeHjAZwMG_OY-55" value="first_name" style="rounded=0;whiteSpace=wrap;html=1;" vertex="1" parent="1">
          <mxGeometry x="160" y="360" width="120" height="40" as="geometry" />
        </mxCell>
        <mxCell id="RCJvMqMgaeHjAZwMG_OY-56" value="last_name" style="rounded=0;whiteSpace=wrap;html=1;" vertex="1" parent="1">
          <mxGeometry x="280" y="360" width="120" height="40" as="geometry" />
        </mxCell>
        <mxCell id="RCJvMqMgaeHjAZwMG_OY-57" value="citizenship" style="rounded=0;whiteSpace=wrap;html=1;" vertex="1" parent="1">
          <mxGeometry x="400" y="360" width="120" height="40" as="geometry" />
        </mxCell>
        <mxCell id="RCJvMqMgaeHjAZwMG_OY-58" value="birthdate" style="rounded=0;whiteSpace=wrap;html=1;" vertex="1" parent="1">
          <mxGeometry x="520" y="360" width="120" height="40" as="geometry" />
        </mxCell>
        <mxCell id="RCJvMqMgaeHjAZwMG_OY-59" value="diet" style="rounded=0;whiteSpace=wrap;html=1;" vertex="1" parent="1">
          <mxGeometry x="640" y="360" width="120" height="40" as="geometry" />
        </mxCell>
        <mxCell id="RCJvMqMgaeHjAZwMG_OY-60" value="understudy" style="rounded=0;whiteSpace=wrap;html=1;" vertex="1" parent="1">
          <mxGeometry x="760" y="360" width="120" height="40" as="geometry" />
        </mxCell>
        <mxCell id="RCJvMqMgaeHjAZwMG_OY-130" style="edgeStyle=orthogonalEdgeStyle;rounded=0;orthogonalLoop=1;jettySize=auto;html=1;exitX=0.5;exitY=1;exitDx=0;exitDy=0;entryX=1;entryY=0.5;entryDx=0;entryDy=0;" edge="1" parent="1" source="RCJvMqMgaeHjAZwMG_OY-61" target="RCJvMqMgaeHjAZwMG_OY-128">
          <mxGeometry relative="1" as="geometry" />
        </mxCell>
        <mxCell id="RCJvMqMgaeHjAZwMG_OY-61" value="role" style="rounded=0;whiteSpace=wrap;html=1;" vertex="1" parent="1">
          <mxGeometry x="880" y="360" width="120" height="40" as="geometry" />
        </mxCell>
        <mxCell id="RCJvMqMgaeHjAZwMG_OY-62" value="&lt;u&gt;venue_id&lt;/u&gt;" style="rounded=0;whiteSpace=wrap;html=1;" vertex="1" parent="1">
          <mxGeometry x="40" y="40" width="120" height="40" as="geometry" />
        </mxCell>
        <mxCell id="RCJvMqMgaeHjAZwMG_OY-63" value="name&lt;br&gt;" style="rounded=0;whiteSpace=wrap;html=1;" vertex="1" parent="1">
          <mxGeometry x="160" y="40" width="120" height="40" as="geometry" />
        </mxCell>
        <mxCell id="RCJvMqMgaeHjAZwMG_OY-64" value="capacity" style="rounded=0;whiteSpace=wrap;html=1;" vertex="1" parent="1">
          <mxGeometry x="280" y="40" width="120" height="40" as="geometry" />
        </mxCell>
        <mxCell id="RCJvMqMgaeHjAZwMG_OY-65" value="street" style="rounded=0;whiteSpace=wrap;html=1;" vertex="1" parent="1">
          <mxGeometry x="400" y="40" width="120" height="40" as="geometry" />
        </mxCell>
        <mxCell id="RCJvMqMgaeHjAZwMG_OY-66" value="city" style="rounded=0;whiteSpace=wrap;html=1;" vertex="1" parent="1">
          <mxGeometry x="520" y="40" width="120" height="40" as="geometry" />
        </mxCell>
        <mxCell id="RCJvMqMgaeHjAZwMG_OY-67" value="province" style="rounded=0;whiteSpace=wrap;html=1;" vertex="1" parent="1">
          <mxGeometry x="640" y="40" width="120" height="40" as="geometry" />
        </mxCell>
        <mxCell id="RCJvMqMgaeHjAZwMG_OY-68" value="transit" style="rounded=0;whiteSpace=wrap;html=1;" vertex="1" parent="1">
          <mxGeometry x="760" y="40" width="120" height="40" as="geometry" />
        </mxCell>
        <mxCell id="RCJvMqMgaeHjAZwMG_OY-69" value="&lt;u&gt;name&lt;/u&gt;" style="rounded=0;whiteSpace=wrap;html=1;" vertex="1" parent="1">
          <mxGeometry x="40" y="200" width="120" height="40" as="geometry" />
        </mxCell>
        <mxCell id="RCJvMqMgaeHjAZwMG_OY-70" value="&lt;u&gt;year&lt;/u&gt;" style="rounded=0;whiteSpace=wrap;html=1;" vertex="1" parent="1">
          <mxGeometry x="160" y="200" width="120" height="40" as="geometry" />
        </mxCell>
        <mxCell id="RCJvMqMgaeHjAZwMG_OY-71" value="sponsor" style="rounded=0;whiteSpace=wrap;html=1;" vertex="1" parent="1">
          <mxGeometry x="280" y="200" width="120" height="40" as="geometry" />
        </mxCell>
        <mxCell id="RCJvMqMgaeHjAZwMG_OY-72" value="producer" style="rounded=0;whiteSpace=wrap;html=1;" vertex="1" parent="1">
          <mxGeometry x="400" y="200" width="120" height="40" as="geometry" />
        </mxCell>
        <mxCell id="RCJvMqMgaeHjAZwMG_OY-113" style="edgeStyle=orthogonalEdgeStyle;rounded=0;orthogonalLoop=1;jettySize=auto;html=1;exitX=0;exitY=0.5;exitDx=0;exitDy=0;entryX=0;entryY=0.5;entryDx=0;entryDy=0;" edge="1" parent="1" source="RCJvMqMgaeHjAZwMG_OY-73" target="RCJvMqMgaeHjAZwMG_OY-54">
          <mxGeometry relative="1" as="geometry">
            <mxPoint x="20" y="460" as="targetPoint" />
          </mxGeometry>
        </mxCell>
        <mxCell id="RCJvMqMgaeHjAZwMG_OY-73" value="&lt;u&gt;performer_id&lt;/u&gt;" style="rounded=0;whiteSpace=wrap;html=1;" vertex="1" parent="1">
          <mxGeometry x="40" y="440" width="120" height="40" as="geometry" />
        </mxCell>
        <mxCell id="RCJvMqMgaeHjAZwMG_OY-74" value="&lt;u&gt;medication&lt;/u&gt;" style="rounded=0;whiteSpace=wrap;html=1;" vertex="1" parent="1">
          <mxGeometry x="160" y="440" width="120" height="40" as="geometry" />
        </mxCell>
        <mxCell id="RCJvMqMgaeHjAZwMG_OY-114" style="edgeStyle=orthogonalEdgeStyle;rounded=0;orthogonalLoop=1;jettySize=auto;html=1;exitX=0;exitY=0.5;exitDx=0;exitDy=0;entryX=0;entryY=0.5;entryDx=0;entryDy=0;" edge="1" parent="1" source="RCJvMqMgaeHjAZwMG_OY-75" target="RCJvMqMgaeHjAZwMG_OY-54">
          <mxGeometry relative="1" as="geometry">
            <mxPoint x="20" y="540" as="targetPoint" />
          </mxGeometry>
        </mxCell>
        <mxCell id="RCJvMqMgaeHjAZwMG_OY-75" value="&lt;u&gt;performer_id&lt;/u&gt;" style="rounded=0;whiteSpace=wrap;html=1;" vertex="1" parent="1">
          <mxGeometry x="40" y="520" width="120" height="40" as="geometry" />
        </mxCell>
        <mxCell id="RCJvMqMgaeHjAZwMG_OY-76" value="first_name" style="rounded=0;whiteSpace=wrap;html=1;" vertex="1" parent="1">
          <mxGeometry x="160" y="520" width="120" height="40" as="geometry" />
        </mxCell>
        <mxCell id="RCJvMqMgaeHjAZwMG_OY-77" value="last_name" style="rounded=0;whiteSpace=wrap;html=1;" vertex="1" parent="1">
          <mxGeometry x="280" y="520" width="120" height="40" as="geometry" />
        </mxCell>
        <mxCell id="RCJvMqMgaeHjAZwMG_OY-78" value="phone" style="rounded=0;whiteSpace=wrap;html=1;" vertex="1" parent="1">
          <mxGeometry x="400" y="520" width="120" height="40" as="geometry" />
        </mxCell>
        <mxCell id="RCJvMqMgaeHjAZwMG_OY-79" value="relationship" style="rounded=0;whiteSpace=wrap;html=1;" vertex="1" parent="1">
          <mxGeometry x="520" y="520" width="120" height="40" as="geometry" />
        </mxCell>
        <mxCell id="RCJvMqMgaeHjAZwMG_OY-115" style="edgeStyle=orthogonalEdgeStyle;rounded=0;orthogonalLoop=1;jettySize=auto;html=1;exitX=0;exitY=0.5;exitDx=0;exitDy=0;entryX=0;entryY=0.5;entryDx=0;entryDy=0;" edge="1" parent="1" source="RCJvMqMgaeHjAZwMG_OY-80" target="RCJvMqMgaeHjAZwMG_OY-62">
          <mxGeometry relative="1" as="geometry" />
        </mxCell>
        <mxCell id="RCJvMqMgaeHjAZwMG_OY-80" value="&lt;u&gt;venue_id&lt;/u&gt;" style="rounded=0;whiteSpace=wrap;html=1;" vertex="1" parent="1">
          <mxGeometry x="40" y="120" width="120" height="40" as="geometry" />
        </mxCell>
        <mxCell id="RCJvMqMgaeHjAZwMG_OY-118" style="edgeStyle=orthogonalEdgeStyle;rounded=0;orthogonalLoop=1;jettySize=auto;html=1;exitX=0.5;exitY=1;exitDx=0;exitDy=0;entryX=0.5;entryY=0;entryDx=0;entryDy=0;" edge="1" parent="1" source="RCJvMqMgaeHjAZwMG_OY-81" target="RCJvMqMgaeHjAZwMG_OY-69">
          <mxGeometry relative="1" as="geometry" />
        </mxCell>
        <mxCell id="RCJvMqMgaeHjAZwMG_OY-81" value="&lt;u&gt;show_name&lt;/u&gt;" style="rounded=0;whiteSpace=wrap;html=1;" vertex="1" parent="1">
          <mxGeometry x="160" y="120" width="120" height="40" as="geometry" />
        </mxCell>
        <mxCell id="RCJvMqMgaeHjAZwMG_OY-119" style="edgeStyle=orthogonalEdgeStyle;rounded=0;orthogonalLoop=1;jettySize=auto;html=1;exitX=0.5;exitY=1;exitDx=0;exitDy=0;entryX=0.75;entryY=0;entryDx=0;entryDy=0;" edge="1" parent="1" source="RCJvMqMgaeHjAZwMG_OY-82" target="RCJvMqMgaeHjAZwMG_OY-70">
          <mxGeometry relative="1" as="geometry" />
        </mxCell>
        <mxCell id="RCJvMqMgaeHjAZwMG_OY-82" value="&lt;u&gt;show_year&lt;/u&gt;" style="rounded=0;whiteSpace=wrap;html=1;" vertex="1" parent="1">
          <mxGeometry x="280" y="120" width="120" height="40" as="geometry" />
        </mxCell>
        <mxCell id="RCJvMqMgaeHjAZwMG_OY-83" value="&lt;u&gt;date&lt;/u&gt;" style="rounded=0;whiteSpace=wrap;html=1;" vertex="1" parent="1">
          <mxGeometry x="400" y="120" width="120" height="40" as="geometry" />
        </mxCell>
        <mxCell id="RCJvMqMgaeHjAZwMG_OY-84" value="location" style="rounded=0;whiteSpace=wrap;html=1;" vertex="1" parent="1">
          <mxGeometry x="520" y="120" width="120" height="40" as="geometry" />
        </mxCell>
        <mxCell id="RCJvMqMgaeHjAZwMG_OY-108" style="edgeStyle=orthogonalEdgeStyle;rounded=0;orthogonalLoop=1;jettySize=auto;html=1;exitX=0.5;exitY=0;exitDx=0;exitDy=0;entryX=0;entryY=0.5;entryDx=0;entryDy=0;" edge="1" parent="1" source="RCJvMqMgaeHjAZwMG_OY-85" target="RCJvMqMgaeHjAZwMG_OY-54">
          <mxGeometry relative="1" as="geometry">
            <Array as="points">
              <mxPoint x="100" y="590" />
              <mxPoint x="20" y="590" />
              <mxPoint x="20" y="380" />
            </Array>
          </mxGeometry>
        </mxCell>
        <mxCell id="RCJvMqMgaeHjAZwMG_OY-85" value="&lt;u&gt;id&lt;/u&gt;" style="rounded=0;whiteSpace=wrap;html=1;" vertex="1" parent="1">
          <mxGeometry x="40" y="610" width="120" height="40" as="geometry" />
        </mxCell>
        <mxCell id="RCJvMqMgaeHjAZwMG_OY-109" style="edgeStyle=orthogonalEdgeStyle;rounded=0;orthogonalLoop=1;jettySize=auto;html=1;exitX=0.5;exitY=0;exitDx=0;exitDy=0;entryX=0;entryY=0.5;entryDx=0;entryDy=0;" edge="1" parent="1" source="RCJvMqMgaeHjAZwMG_OY-86" target="RCJvMqMgaeHjAZwMG_OY-54">
          <mxGeometry relative="1" as="geometry">
            <Array as="points">
              <mxPoint x="340" y="590" />
              <mxPoint x="20" y="590" />
              <mxPoint x="20" y="380" />
            </Array>
          </mxGeometry>
        </mxCell>
        <mxCell id="RCJvMqMgaeHjAZwMG_OY-86" value="&lt;u&gt;id&lt;/u&gt;" style="rounded=0;whiteSpace=wrap;html=1;" vertex="1" parent="1">
          <mxGeometry x="280" y="610" width="120" height="40" as="geometry" />
        </mxCell>
        <mxCell id="RCJvMqMgaeHjAZwMG_OY-87" value="act" style="rounded=0;whiteSpace=wrap;html=1;" vertex="1" parent="1">
          <mxGeometry x="400" y="610" width="120" height="40" as="geometry" />
        </mxCell>
        <mxCell id="RCJvMqMgaeHjAZwMG_OY-110" style="edgeStyle=orthogonalEdgeStyle;rounded=0;orthogonalLoop=1;jettySize=auto;html=1;exitX=0.5;exitY=0;exitDx=0;exitDy=0;entryX=0;entryY=0.5;entryDx=0;entryDy=0;" edge="1" parent="1" source="RCJvMqMgaeHjAZwMG_OY-88" target="RCJvMqMgaeHjAZwMG_OY-54">
          <mxGeometry relative="1" as="geometry">
            <Array as="points">
              <mxPoint x="660" y="590" />
              <mxPoint x="20" y="590" />
              <mxPoint x="20" y="380" />
            </Array>
          </mxGeometry>
        </mxCell>
        <mxCell id="RCJvMqMgaeHjAZwMG_OY-88" value="&lt;u&gt;id&lt;/u&gt;" style="rounded=0;whiteSpace=wrap;html=1;" vertex="1" parent="1">
          <mxGeometry x="600" y="610" width="120" height="40" as="geometry" />
        </mxCell>
        <mxCell id="RCJvMqMgaeHjAZwMG_OY-89" value="sport" style="rounded=0;whiteSpace=wrap;html=1;" vertex="1" parent="1">
          <mxGeometry x="720" y="610" width="120" height="40" as="geometry" />
        </mxCell>
        <mxCell id="RCJvMqMgaeHjAZwMG_OY-106" style="edgeStyle=orthogonalEdgeStyle;rounded=0;orthogonalLoop=1;jettySize=auto;html=1;exitX=0.5;exitY=0;exitDx=0;exitDy=0;entryX=0.5;entryY=1;entryDx=0;entryDy=0;" edge="1" parent="1" source="RCJvMqMgaeHjAZwMG_OY-90" target="RCJvMqMgaeHjAZwMG_OY-85">
          <mxGeometry relative="1" as="geometry" />
        </mxCell>
        <mxCell id="RCJvMqMgaeHjAZwMG_OY-90" value="&lt;u&gt;musician_id&lt;/u&gt;" style="rounded=0;whiteSpace=wrap;html=1;" vertex="1" parent="1">
          <mxGeometry x="40" y="690" width="120" height="40" as="geometry" />
        </mxCell>
        <mxCell id="RCJvMqMgaeHjAZwMG_OY-91" value="&lt;u&gt;instrument&lt;/u&gt;" style="rounded=0;whiteSpace=wrap;html=1;" vertex="1" parent="1">
          <mxGeometry x="160" y="690" width="120" height="40" as="geometry" />
        </mxCell>
        <mxCell id="RCJvMqMgaeHjAZwMG_OY-107" style="edgeStyle=orthogonalEdgeStyle;rounded=0;orthogonalLoop=1;jettySize=auto;html=1;exitX=0.5;exitY=0;exitDx=0;exitDy=0;entryX=0.5;entryY=1;entryDx=0;entryDy=0;" edge="1" parent="1" source="RCJvMqMgaeHjAZwMG_OY-92" target="RCJvMqMgaeHjAZwMG_OY-88">
          <mxGeometry relative="1" as="geometry" />
        </mxCell>
        <mxCell id="RCJvMqMgaeHjAZwMG_OY-92" value="&lt;u&gt;aerialist_id&lt;/u&gt;" style="rounded=0;whiteSpace=wrap;html=1;" vertex="1" parent="1">
          <mxGeometry x="600" y="690" width="120" height="40" as="geometry" />
        </mxCell>
        <mxCell id="RCJvMqMgaeHjAZwMG_OY-93" value="&lt;u&gt;equipment&lt;/u&gt;" style="rounded=0;whiteSpace=wrap;html=1;" vertex="1" parent="1">
          <mxGeometry x="720" y="690" width="120" height="40" as="geometry" />
        </mxCell>
        <mxCell id="RCJvMqMgaeHjAZwMG_OY-94" value="VENUE" style="text;html=1;align=center;verticalAlign=middle;resizable=0;points=[];autosize=1;strokeColor=none;fillColor=none;fontStyle=0" vertex="1" parent="1">
          <mxGeometry x="40" y="10" width="60" height="30" as="geometry" />
        </mxCell>
        <mxCell id="RCJvMqMgaeHjAZwMG_OY-95" value="SHOW" style="text;html=1;align=center;verticalAlign=middle;resizable=0;points=[];autosize=1;strokeColor=none;fillColor=none;" vertex="1" parent="1">
          <mxGeometry x="35" y="170" width="60" height="30" as="geometry" />
        </mxCell>
        <mxCell id="RCJvMqMgaeHjAZwMG_OY-96" value="PERFORMER" style="text;html=1;align=center;verticalAlign=middle;resizable=0;points=[];autosize=1;strokeColor=none;fillColor=none;" vertex="1" parent="1">
          <mxGeometry x="30" y="330" width="100" height="30" as="geometry" />
        </mxCell>
        <mxCell id="RCJvMqMgaeHjAZwMG_OY-97" value="MEDICATION" style="text;html=1;align=center;verticalAlign=middle;resizable=0;points=[];autosize=1;strokeColor=none;fillColor=none;" vertex="1" parent="1">
          <mxGeometry x="30" y="410" width="100" height="30" as="geometry" />
        </mxCell>
        <mxCell id="RCJvMqMgaeHjAZwMG_OY-98" value="EMERGENCY_CONTACT" style="text;html=1;align=center;verticalAlign=middle;resizable=0;points=[];autosize=1;strokeColor=none;fillColor=none;" vertex="1" parent="1">
          <mxGeometry x="40" y="490" width="160" height="30" as="geometry" />
        </mxCell>
        <mxCell id="RCJvMqMgaeHjAZwMG_OY-99" value="SCHEDULE" style="text;html=1;align=center;verticalAlign=middle;resizable=0;points=[];autosize=1;strokeColor=none;fillColor=none;" vertex="1" parent="1">
          <mxGeometry x="50" y="90" width="90" height="30" as="geometry" />
        </mxCell>
        <mxCell id="RCJvMqMgaeHjAZwMG_OY-100" value="MUSICIAN" style="text;html=1;align=center;verticalAlign=middle;resizable=0;points=[];autosize=1;strokeColor=none;fillColor=none;" vertex="1" parent="1">
          <mxGeometry x="30" y="590" width="80" height="30" as="geometry" />
        </mxCell>
        <mxCell id="RCJvMqMgaeHjAZwMG_OY-101" value="ENTERTAINER" style="text;html=1;align=center;verticalAlign=middle;resizable=0;points=[];autosize=1;strokeColor=none;fillColor=none;" vertex="1" parent="1">
          <mxGeometry x="340" y="590" width="110" height="30" as="geometry" />
        </mxCell>
        <mxCell id="RCJvMqMgaeHjAZwMG_OY-102" value="AERIALIST" style="text;html=1;align=center;verticalAlign=middle;resizable=0;points=[];autosize=1;strokeColor=none;fillColor=none;" vertex="1" parent="1">
          <mxGeometry x="680" y="590" width="80" height="30" as="geometry" />
        </mxCell>
        <mxCell id="RCJvMqMgaeHjAZwMG_OY-103" value="INSTRUMENT" style="text;html=1;align=center;verticalAlign=middle;resizable=0;points=[];autosize=1;strokeColor=none;fillColor=none;" vertex="1" parent="1">
          <mxGeometry x="110" y="670" width="100" height="30" as="geometry" />
        </mxCell>
        <mxCell id="RCJvMqMgaeHjAZwMG_OY-104" value="AERIAL_EQUIPMENT" style="text;html=1;align=center;verticalAlign=middle;resizable=0;points=[];autosize=1;strokeColor=none;fillColor=none;" vertex="1" parent="1">
          <mxGeometry x="680" y="670" width="140" height="30" as="geometry" />
        </mxCell>
        <mxCell id="RCJvMqMgaeHjAZwMG_OY-125" style="edgeStyle=orthogonalEdgeStyle;rounded=0;orthogonalLoop=1;jettySize=auto;html=1;exitX=0.5;exitY=0;exitDx=0;exitDy=0;entryX=0.5;entryY=1;entryDx=0;entryDy=0;" edge="1" parent="1" source="RCJvMqMgaeHjAZwMG_OY-120" target="RCJvMqMgaeHjAZwMG_OY-69">
          <mxGeometry relative="1" as="geometry" />
        </mxCell>
        <mxCell id="RCJvMqMgaeHjAZwMG_OY-120" value="&lt;u&gt;show_name&lt;/u&gt;" style="rounded=0;whiteSpace=wrap;html=1;" vertex="1" parent="1">
          <mxGeometry x="40" y="280" width="120" height="40" as="geometry" />
        </mxCell>
        <mxCell id="RCJvMqMgaeHjAZwMG_OY-126" style="edgeStyle=orthogonalEdgeStyle;rounded=0;orthogonalLoop=1;jettySize=auto;html=1;exitX=0.5;exitY=0;exitDx=0;exitDy=0;entryX=0.5;entryY=1;entryDx=0;entryDy=0;" edge="1" parent="1" source="RCJvMqMgaeHjAZwMG_OY-121" target="RCJvMqMgaeHjAZwMG_OY-70">
          <mxGeometry relative="1" as="geometry" />
        </mxCell>
        <mxCell id="RCJvMqMgaeHjAZwMG_OY-121" value="&lt;u&gt;show_year&lt;/u&gt;" style="rounded=0;whiteSpace=wrap;html=1;" vertex="1" parent="1">
          <mxGeometry x="160" y="280" width="120" height="40" as="geometry" />
        </mxCell>
        <mxCell id="RCJvMqMgaeHjAZwMG_OY-127" style="edgeStyle=orthogonalEdgeStyle;rounded=0;orthogonalLoop=1;jettySize=auto;html=1;exitX=0.5;exitY=1;exitDx=0;exitDy=0;entryX=0.75;entryY=0;entryDx=0;entryDy=0;" edge="1" parent="1" source="RCJvMqMgaeHjAZwMG_OY-122" target="RCJvMqMgaeHjAZwMG_OY-54">
          <mxGeometry relative="1" as="geometry" />
        </mxCell>
        <mxCell id="RCJvMqMgaeHjAZwMG_OY-122" value="&lt;u&gt;performer_id&lt;/u&gt;" style="rounded=0;whiteSpace=wrap;html=1;" vertex="1" parent="1">
          <mxGeometry x="280" y="280" width="120" height="40" as="geometry" />
        </mxCell>
        <mxCell id="RCJvMqMgaeHjAZwMG_OY-123" value="CAST" style="text;html=1;align=center;verticalAlign=middle;resizable=0;points=[];autosize=1;strokeColor=none;fillColor=none;" vertex="1" parent="1">
          <mxGeometry x="40" y="250" width="60" height="30" as="geometry" />
        </mxCell>
        <mxCell id="RCJvMqMgaeHjAZwMG_OY-128" value="&lt;u&gt;role&lt;/u&gt;" style="rounded=0;whiteSpace=wrap;html=1;" vertex="1" parent="1">
          <mxGeometry x="42.5" y="800" width="120" height="40" as="geometry" />
        </mxCell>
        <mxCell id="RCJvMqMgaeHjAZwMG_OY-129" value="ROLES" style="text;html=1;align=center;verticalAlign=middle;resizable=0;points=[];autosize=1;strokeColor=none;fillColor=none;" vertex="1" parent="1">
          <mxGeometry x="37.5" y="770" width="60" height="30" as="geometry" />
        </mxCell>
      </root>
    </mxGraphModel>
  </diagram>
</mxfile>
